<?xml version="1.0" encoding="UTF-8"?>
<!DOCTYPE svg PUBLIC "-//W3C//DTD SVG 1.1//EN" "http://www.w3.org/Graphics/SVG/1.1/DTD/svg11.dtd">
<!-- Creator: CorelDRAW X7 -->
<svg xmlns="http://www.w3.org/2000/svg" xml:space="preserve" width="470px" height="470px" version="1.1" style="shape-rendering:geometricPrecision; text-rendering:geometricPrecision; image-rendering:optimizeQuality; fill-rule:evenodd; clip-rule:evenodd"
viewBox="0 0 1589 1589"
 xmlns:xlink="http://www.w3.org/1999/xlink">
 <defs>
  <style type="text/css">
   <![CDATA[
    .fil1 {fill:none}
    .fil0 {fill:black;fill-rule:nonzero}
   ]]>
  </style>
   <clipPath id="id0">
    <path d="M21 21l1547 0 0 1547 -1547 0 0 -1547z"/>
   </clipPath>
 </defs>
 <g id="Layer_x0020_1">
  <metadata id="CorelCorpID_0Corel-Layer"/>
  <g>
  </g>
  <g style="clip-path:url(#id0)">
   <g>
    <path class="fil0" d="M44 -485l521 0 0 535 -535 0 0 -535 14 0zm493 28l-479 0 0 479 479 0 0 -479z"/>
    <path class="fil0" d="M44 22l521 0 0 536 -535 0 0 -536 14 0zm493 28l-479 0 0 479 479 0 0 -479z"/>
    <path class="fil0" d="M44 529l521 0 0 536 -535 0 0 -536 14 0zm493 29l-479 0 0 479 479 0 0 -479z"/>
    <path class="fil0" d="M44 1037l521 0 0 535 -535 0 0 -535 14 0zm493 28l-479 0 0 479 479 0 0 -479z"/>
    <path class="fil0" d="M44 1544l521 0 0 535 -535 0 0 -535 14 0zm493 28l-479 0 0 479 479 0 0 -479z"/>
    <path class="fil0" d="M551 -739l521 0 0 536 -535 0 0 -536 14 0zm493 29l-479 0 0 479 479 0 0 -479z"/>
    <path class="fil0" d="M551 -231l521 0 0 535 -535 0 0 -535 14 0zm493 28l-479 0 0 479 479 0 0 -479z"/>
    <path class="fil0" d="M551 276l521 0 0 535 -535 0 0 -535 14 0zm493 28l-479 0 0 479 479 0 0 -479z"/>
    <path class="fil0" d="M551 783l521 0 0 536 -535 0 0 -536 14 0zm493 28l-479 0 0 479 479 0 0 -479z"/>
    <path class="fil0" d="M551 1290l521 0 0 536 -535 0 0 -536 14 0zm493 29l-479 0 0 479 479 0 0 -479z"/>
    <path class="fil0" d="M1058 -485l522 0 0 535 -536 0 0 -535 14 0zm494 28l-480 0 0 479 480 0 0 -479z"/>
    <path class="fil0" d="M1058 22l522 0 0 536 -536 0 0 -536 14 0zm494 28l-480 0 0 479 480 0 0 -479z"/>
    <path class="fil0" d="M1058 529l522 0 0 536 -536 0 0 -536 14 0zm494 29l-480 0 0 479 480 0 0 -479z"/>
    <path class="fil0" d="M1058 1037l522 0 0 535 -536 0 0 -535 14 0zm494 28l-480 0 0 479 480 0 0 -479z"/>
    <path class="fil0" d="M1058 1544l522 0 0 535 -536 0 0 -535 14 0zm494 28l-480 0 0 479 480 0 0 -479z"/>
   </g>
  </g>
  <polygon class="fil1" points="21,21 1568,21 1568,1568 21,1568 "/>
  <path class="fil0" d="M21 0l1568 0 0 1589 -1589 0 0 -1589 21 0zm1526 42l-1505 0 0 1505 1505 0 0 -1505z"/>
 </g>
</svg>
