<?xml version="1.0" encoding="UTF-8"?>
<!DOCTYPE svg PUBLIC "-//W3C//DTD SVG 1.1//EN" "http://www.w3.org/Graphics/SVG/1.1/DTD/svg11.dtd">
<!-- Creator: CorelDRAW X7 -->
<svg xmlns="http://www.w3.org/2000/svg" xml:space="preserve" width="470px" height="470px" version="1.1" style="shape-rendering:geometricPrecision; text-rendering:geometricPrecision; image-rendering:optimizeQuality; fill-rule:evenodd; clip-rule:evenodd"
viewBox="0 0 210 210"
 xmlns:xlink="http://www.w3.org/1999/xlink">
 <defs>
  <style type="text/css">
   <![CDATA[
    .fil1 {fill:none}
    .fil0 {fill:black;fill-rule:nonzero}
   ]]>
  </style>
   <clipPath id="id0">
    <path d="M3 3l204 0 0 204 -204 0 0 -204z"/>
   </clipPath>
 </defs>
 <g id="Layer_x0020_1">
  <metadata id="CorelCorpID_0Corel-Layer"/>
  <g>
  </g>
  <g style="clip-path:url(#id0)">
   <g>
    <g id="_711988976">
     <path class="fil0" d="M196 -194l27 27c-29,30 -59,59 -88,89l-29 -29c29,-30 59,-59 89,-89l1 2zm22 27l-23 -24 -84 84 24 23 83 -83z"/>
     <path class="fil0" d="M110 -108l27 27c-29,30 -59,59 -89,89l-28 -29c29,-29 59,-59 88,-89l2 2zm22 27l-24 -23 -83 83 23 24 84 -84z"/>
     <path class="fil0" d="M24 -22l27 27c-30,30 -59,59 -89,89l-29 -29c30,-29 60,-59 89,-88l2 1zm22 27l-24 -23 -83 83 23 24 84 -84z"/>
     <path class="fil0" d="M-63 64l28 27c-30,30 -59,60 -89,89l-29 -28c30,-30 60,-60 89,-89l1 1zm23 27l-24 -23 -83 84 23 23 84 -84z"/>
     <path class="fil0" d="M179 -125l27 27c-29,30 -59,59 -88,89l-29 -29c29,-29 59,-59 89,-89l1 2zm22 27l-23 -23 -84 83 24 24 83 -84z"/>
     <path class="fil0" d="M93 -39l27 27c-29,30 -59,59 -89,89l-28 -29c29,-29 59,-59 88,-88l2 1zm22 27l-24 -23 -83 83 23 24 84 -84z"/>
     <path class="fil0" d="M7 47l27 27c-30,30 -59,60 -89,89l-29 -28c30,-30 60,-60 89,-89l2 1zm22 27l-24 -23 -83 84 23 23 84 -84z"/>
     <path class="fil0" d="M-80 133l28 28c-30,29 -59,59 -89,88l-29 -28c30,-30 60,-59 89,-89l1 1zm23 28l-24 -24 -83 84 23 23 84 -83z"/>
     <path class="fil0" d="M248 -142l28 27c-30,30 -60,59 -89,89l-29 -29c30,-29 59,-59 89,-89l1 2zm22 27l-23 -23 -84 83 24 24 83 -84z"/>
     <path class="fil0" d="M162 -56l27 27c-29,30 -59,59 -88,89l-29 -29c29,-29 59,-59 89,-88l1 1zm22 27l-23 -23 -84 83 24 24 83 -84z"/>
     <path class="fil0" d="M76 30l27 27c-29,30 -59,60 -89,89l-28 -28c29,-30 59,-60 88,-89l2 1zm22 27l-24 -23 -83 84 23 23 84 -84z"/>
     <path class="fil0" d="M-10 116l27 28c-30,29 -59,59 -89,88l-29 -28c30,-30 60,-60 89,-89l2 1zm22 28l-24 -24 -83 84 23 23 84 -83z"/>
     <path class="fil0" d="M300 -90l28 27 -89 89 -29 -29c30,-29 59,-59 89,-88l1 1zm22 27l-23 -23 -84 83 24 24 83 -84z"/>
     <path class="fil0" d="M214 -4l28 27c-30,30 -60,60 -89,89l-29 -28c30,-30 59,-60 89,-89l1 1zm22 27l-23 -23 -84 84 24 23 83 -84z"/>
     <path class="fil0" d="M128 82l27 28c-29,29 -59,59 -88,88l-29 -28c29,-30 59,-59 89,-89l1 1zm22 28l-23 -24 -84 84 24 23 83 -83z"/>
     <path class="fil0" d="M42 168l27 28c-29,29 -59,59 -89,89l-28 -29c29,-30 59,-59 88,-89l2 1zm22 28l-24 -24 -83 84 23 23 84 -83z"/>
     <path class="fil0" d="M352 -38l28 27c-30,30 -59,60 -89,89l-29 -28c30,-30 60,-60 89,-89l1 1zm23 27l-24 -23 -83 84 23 23 84 -84z"/>
     <path class="fil0" d="M266 48l28 28 -89 88 -29 -28 89 -89 1 1zm22 28l-23 -24 -84 84 24 23 83 -83z"/>
     <path class="fil0" d="M180 134l28 28c-30,29 -60,59 -89,89l-29 -29c30,-30 59,-59 89,-89l1 1zm22 28l-23 -24 -84 84 24 23 83 -83z"/>
     <path class="fil0" d="M94 221l27 27c-29,30 -59,59 -88,89l-29 -29c29,-30 59,-59 89,-89l1 2zm22 27l-23 -23 -84 83 24 24 83 -84z"/>
     <path class="fil0" d="M231 -73l28 27c-30,30 -60,59 -89,89l-29 -29c30,-29 59,-59 89,-88l1 1zm22 27l-23 -23 -84 83 24 24 83 -84z"/>
     <path class="fil0" d="M145 13l27 27c-29,30 -59,60 -88,89l-29 -28c29,-30 59,-60 89,-89l1 1zm22 27l-23 -23 -84 84 24 23 83 -84z"/>
     <path class="fil0" d="M59 99l27 28c-29,29 -59,59 -89,88l-28 -28c29,-30 59,-60 88,-89l2 1zm22 28l-24 -24 -83 84 23 23 84 -83z"/>
     <path class="fil0" d="M-27 185l27 28c-30,29 -59,59 -89,89l-29 -29c30,-30 60,-59 89,-89l2 1zm22 28l-24 -24 -83 84 23 23 84 -83z"/>
     <path class="fil0" d="M283 -21l28 27 -89 89 -29 -28 89 -89 1 1zm22 27l-23 -23 -84 84 24 23 83 -84z"/>
     <path class="fil0" d="M197 65l28 28c-30,29 -60,59 -89,88l-29 -28c30,-30 59,-59 89,-89l1 1zm22 28l-23 -24 -84 84 24 23 83 -83z"/>
     <path class="fil0" d="M111 151l27 28c-29,29 -59,59 -88,89l-29 -29c29,-30 59,-59 89,-89l1 1zm22 28l-23 -24 -84 84 24 23 83 -83z"/>
     <path class="fil0" d="M25 238l27 27c-29,30 -59,59 -89,89l-28 -29c29,-30 59,-59 88,-89l2 2zm22 27l-24 -23 -83 83 23 24 84 -84z"/>
     <path class="fil0" d="M335 31l28 28 -89 88 -29 -28c30,-30 60,-59 89,-89l1 1zm23 28l-24 -24 -83 84 23 23 84 -83z"/>
     <path class="fil0" d="M249 117l28 28c-30,29 -60,59 -89,89l-29 -29c30,-30 59,-59 89,-89l1 1zm22 28l-23 -24 -84 84 24 23 83 -83z"/>
     <path class="fil0" d="M163 204l28 27c-30,30 -60,59 -89,89l-29 -29c30,-30 59,-59 89,-89l1 2zm22 27l-23 -23 -84 83 24 24 83 -84z"/>
     <path class="fil0" d="M77 290l27 27c-29,30 -59,59 -88,89l-29 -29c29,-29 59,-59 89,-89l1 2zm22 27l-23 -23 -84 83 24 24 83 -84z"/>
    </g>
   </g>
  </g>
  <polygon class="fil1" points="3,3 207,3 207,207 3,207 "/>
  <path class="fil0" d="M3 0l207 0 0 210 -210 0 0 -210 3 0zm202 6l-199 0 0 199 199 0 0 -199z"/>
 </g>
</svg>
