<?xml version="1.0" encoding="UTF-8"?>
<!DOCTYPE svg PUBLIC "-//W3C//DTD SVG 1.1//EN" "http://www.w3.org/Graphics/SVG/1.1/DTD/svg11.dtd">
<!-- Creator: CorelDRAW X7 -->
<svg xmlns="http://www.w3.org/2000/svg" xml:space="preserve" width="403px" height="465px" version="1.1" style="shape-rendering:geometricPrecision; text-rendering:geometricPrecision; image-rendering:optimizeQuality; fill-rule:evenodd; clip-rule:evenodd"
viewBox="0 0 807 931"
 xmlns:xlink="http://www.w3.org/1999/xlink">
 <defs>
  <style type="text/css">
   <![CDATA[
    .fil0 {fill:black;fill-rule:nonzero}
   ]]>
  </style>
 </defs>
 <g id="Layer_x0020_1">
  <metadata id="CorelCorpID_0Corel-Layer"/>
  <g id="_633815968">
   <path class="fil0" d="M223 62c5,9 8,18 11,27 2,10 3,20 3,30 0,33 -13,62 -34,84 -22,21 -51,34 -84,34 -33,0 -63,-13 -84,-34 -22,-22 -35,-51 -35,-84 0,-33 13,-62 34,-84 21,-21 51,-35 83,-35l0 21c-26,0 -51,11 -68,29 -17,18 -28,42 -28,69 0,27 11,51 29,69 17,18 42,29 69,29 27,0 51,-11 69,-29 18,-18 29,-42 29,-69 0,-8 -1,-17 -3,-24 -2,-8 -5,-16 -9,-23l18 -10z"/>
   <path class="fil0" d="M167 92c3,4 4,9 5,13 2,5 2,9 2,14 0,15 -6,29 -16,39l0 0c-10,10 -24,16 -39,16 -16,0 -29,-6 -39,-16 -11,-10 -17,-24 -17,-39 0,-15 6,-29 16,-39 10,-10 24,-16 39,-17l0 21c-9,0 -18,4 -24,10 -6,7 -10,15 -10,25 0,9 4,18 10,24 7,6 15,10 25,10 9,0 18,-4 24,-10l0 0c6,-6 10,-15 10,-24 0,-3 0,-6 -1,-9 0,-3 -2,-5 -3,-8l18 -10z"/>
   <path class="fil0" d="M603 72c-4,7 -7,15 -9,23 -2,7 -3,16 -3,24 0,27 11,51 28,69 18,18 42,29 69,29 28,0 52,-11 70,-29 17,-18 28,-42 28,-69 0,-27 -10,-51 -28,-69 -17,-18 -41,-29 -68,-29l0 -21c33,0 62,14 83,35 21,22 34,51 34,84 0,33 -13,62 -35,84 -21,21 -51,34 -84,34 -32,0 -62,-13 -83,-34 -22,-22 -35,-51 -35,-84 0,-10 1,-20 3,-30 3,-9 7,-18 11,-27l19 10z"/>
   <path class="fil0" d="M658 102c-1,3 -2,5 -3,8 -1,3 -1,6 -1,9 0,9 4,18 10,24l0 0c6,6 15,10 24,10 10,0 19,-4 25,-10 6,-6 10,-15 10,-24 0,-10 -4,-18 -10,-25 -6,-6 -15,-10 -24,-10l0 -21c15,1 29,7 39,17 10,10 16,24 16,39 0,15 -6,29 -16,39 -10,10 -24,16 -40,16 -15,0 -29,-6 -39,-16l0 0c-10,-10 -16,-24 -16,-39 0,-5 1,-9 2,-14 1,-4 3,-9 5,-13l18 10z"/>
   <polygon class="fil0" points="117,0 688,0 688,21 117,21 "/>
   <polygon class="fil0" points="274,108 533,108 533,129 274,129 "/>
   <polygon class="fil0" points="119,318 688,318 688,339 119,339 "/>
   <polygon class="fil0" points="699,227 699,400 678,400 678,227 "/>
   <polygon class="fil0" points="129,227 129,400 108,400 108,227 "/>
   <path class="fil0" d="M114 392l578 0c12,0 23,5 31,13l0 0c8,8 13,19 13,31l0 14c0,12 -5,23 -13,31l0 0c-8,8 -19,13 -31,13l-578 0c-12,0 -23,-5 -31,-13l0 0c-8,-8 -13,-19 -13,-31l0 -14c0,-12 5,-23 13,-31l0 0c8,-8 19,-13 31,-13zm578 21l-578 0c-6,0 -12,3 -17,7l0 0c-4,4 -6,10 -6,16l0 14c0,7 2,12 6,17l0 0c5,4 11,7 17,7l578 0c6,0 12,-3 16,-7l0 0c5,-5 7,-10 7,-17l0 -14c0,-6 -2,-12 -7,-16l0 0c-4,-4 -10,-7 -16,-7z"/>
   <path class="fil0" d="M129 910l549 0 0 -416 -549 0 0 416zm559 21l-580 0 0 -457 591 0 0 457 -11 0z"/>
   <path class="fil0" d="M188 920l0 -325c0,-13 5,-24 13,-32 8,-8 19,-13 31,-13l14 0c12,0 23,5 31,13l0 0c8,8 13,19 13,32l0 336 -102 0 0 -11zm21 -325l0 315 60 0 0 -315c0,-7 -2,-13 -7,-17l0 0c-4,-4 -10,-7 -16,-7l-14 0c-6,0 -12,3 -16,7 -5,4 -7,10 -7,17z"/>
   <path class="fil0" d="M352 920l0 -325c0,-13 5,-24 13,-32 8,-8 19,-13 31,-13l14 0c12,0 23,5 31,13l0 0c8,8 13,19 13,32l0 336 -102 0 0 -11zm21 -325l0 315 60 0 0 -315c0,-7 -3,-13 -7,-17l0 0c-4,-4 -10,-7 -16,-7l-14 0c-6,0 -12,3 -17,7 -4,4 -6,10 -6,17z"/>
   <path class="fil0" d="M516 920l0 -325c0,-13 5,-24 13,-32 8,-8 19,-13 31,-13l14 0c12,0 23,5 31,13l0 0c8,8 13,19 13,32l0 336 -102 0 0 -11zm20 -325l0 315 61 0 0 -315c0,-7 -3,-13 -7,-17l0 0c-4,-4 -10,-7 -16,-7l-14 0c-7,0 -12,3 -17,7 -4,4 -7,10 -7,17z"/>
  </g>
 </g>
</svg>
