<?xml version="1.0" encoding="UTF-8"?>
<!DOCTYPE svg PUBLIC "-//W3C//DTD SVG 1.1//EN" "http://www.w3.org/Graphics/SVG/1.1/DTD/svg11.dtd">
<!-- Creator: CorelDRAW X7 -->
<svg xmlns="http://www.w3.org/2000/svg" xml:space="preserve" width="499px" height="558px" version="1.1" style="shape-rendering:geometricPrecision; text-rendering:geometricPrecision; image-rendering:optimizeQuality; fill-rule:evenodd; clip-rule:evenodd"
viewBox="0 0 210 235"
 xmlns:xlink="http://www.w3.org/1999/xlink">
 <defs>
  <style type="text/css">
   <![CDATA[
    .fil0 {fill:black;fill-rule:nonzero}
   ]]>
  </style>
 </defs>
 <g id="Layer_x0020_1">
  <metadata id="CorelCorpID_0Corel-Layer"/>
  <g id="_629082192">
   <path class="fil0" d="M130 2c0,5 -3,9 -8,12 -4,3 -10,5 -17,5 -7,0 -13,-2 -17,-5 -5,-3 -8,-7 -8,-12l0 -2 50 0 0 2zm-10 8c2,-1 4,-3 5,-6l-40 0c1,3 2,5 5,6 4,3 9,4 15,4 6,0 11,-1 15,-4z"/>
   <path class="fil0" d="M86 183c-18,-17 -11,-29 -5,-39 2,-3 4,-6 5,-9l0 -2 38 0 0 2c1,3 3,6 5,9 6,10 13,22 -5,39l-1 0 -36 0 -1 0zm-1 -36c-5,8 -11,18 4,32l33 0c15,-14 8,-24 3,-32 -2,-4 -4,-6 -5,-9l-30 0c-1,3 -3,5 -5,9z"/>
   <path class="fil0" d="M79 113l57 0 -3 3c-3,3 -5,6 -6,9 -2,4 -2,7 -3,11l0 2 -38 0 0 -2c0,-4 -1,-7 -3,-11 -1,-3 -3,-6 -6,-9l-3 -3 5 0zm48 4l-44 0c2,2 3,4 4,7 2,3 2,6 3,9l30 0c1,-3 2,-6 3,-9 1,-3 2,-5 4,-7z"/>
   <path class="fil0" d="M125 181c0,3 -3,6 -7,8 -3,2 -8,3 -13,3 -5,0 -10,-1 -13,-3 -4,-2 -6,-5 -6,-8l0 -2 39 0 0 2zm-9 4c1,0 2,-1 3,-2l-28 0c1,1 2,2 3,2 3,1 7,2 11,2 5,0 9,-1 11,-2z"/>
   <path class="fil0" d="M115 189c0,3 -1,6 -3,8 -2,2 -4,3 -7,3 -3,0 -5,-1 -7,-3 -2,-2 -3,-5 -3,-8l0 -2 3 0 0 0c1,0 2,0 4,0 1,0 2,0 3,0 1,0 2,0 4,0 1,0 2,0 3,0l0 0 3 0 0 2zm-6 5c0,-1 1,-2 1,-3l-1 1c-1,0 -3,0 -4,0 -1,0 -3,0 -4,0 0,-1 -1,-1 -1,-1 0,1 1,2 1,3 1,1 3,2 4,2 1,0 3,-1 4,-2z"/>
   <path class="fil0" d="M93 114c3,3 4,6 5,10l0 0c2,3 2,7 2,11l-4 0c0,-3 -1,-7 -2,-10l0 0c-1,-3 -2,-6 -4,-9l3 -2z"/>
   <path class="fil0" d="M120 116c-2,3 -3,6 -4,9l0 0c-1,3 -2,7 -2,10l-4 0c0,-4 0,-8 1,-11l0 0c2,-4 3,-7 6,-10l3 2z"/>
   <path class="fil0" d="M161 195c-19,-17 -12,-29 -5,-39 2,-3 4,-6 4,-9l0 -2 38 0 1 2c0,3 2,6 4,9 6,10 14,22 -5,39l0 0 -37 0 0 0zm-2 -37c-5,9 -11,19 4,33l33 0c15,-14 9,-24 3,-33 -1,-3 -3,-6 -4,-8l-31 0c-1,2 -3,5 -5,8z"/>
   <path class="fil0" d="M153 125l57 0 -3 3c-2,3 -4,6 -6,9 -1,4 -2,7 -2,10l0 3 -39 0 0 -3c0,-3 -1,-6 -2,-10 -2,-3 -4,-6 -6,-9l-3 -3 4 0zm48 4l-43 0c1,2 2,4 4,7 1,3 2,6 2,9l31 0c0,-3 1,-6 2,-9 1,-3 3,-5 4,-7z"/>
   <path class="fil0" d="M199 193c0,3 -3,6 -6,8 -4,2 -8,3 -14,3 -5,0 -9,-1 -13,-3 -4,-2 -6,-5 -6,-8l0 -2 39 0 0 2zm-8 4c1,-1 2,-1 2,-2l-28 0c1,1 2,1 3,2 3,1 7,2 11,2 5,0 9,-1 12,-2z"/>
   <path class="fil0" d="M189 201c0,3 -1,6 -3,8 -1,2 -4,3 -7,3 -2,0 -5,-1 -7,-3 -1,-2 -2,-5 -2,-8l0 -3 2 0 1 1c1,0 2,0 3,0 1,0 2,0 3,0 2,0 3,0 4,0 1,0 2,0 3,0l0 -1 3 0 0 3zm-6 5c0,-1 1,-2 1,-3l-1 0c-1,1 -2,1 -4,1 -1,0 -2,0 -4,-1 0,0 0,0 -1,0 1,1 1,2 2,3 1,1 2,2 3,2 2,0 3,-1 4,-2z"/>
   <path class="fil0" d="M168 126c2,3 4,6 5,10l0 0c1,3 1,7 1,11l-4 0c0,-3 0,-7 -1,-10l0 0c-1,-3 -3,-6 -5,-9l4 -2z"/>
   <path class="fil0" d="M194 128c-1,3 -3,6 -4,9l0 0c-1,3 -2,7 -2,10l-4 0c0,-4 1,-8 2,-11l0 0c1,-4 3,-7 5,-10l3 2z"/>
   <path class="fil0" d="M12 195c-19,-17 -11,-29 -5,-39 2,-3 4,-6 4,-9l1 -2 38 0 0 2c0,3 2,6 4,9 7,10 14,22 -4,39l-1 0 -37 0 0 0zm-1 -37c-6,9 -12,19 3,33l33 0c15,-14 9,-24 4,-33 -2,-3 -4,-6 -5,-8l-31 0c-1,2 -2,5 -4,8z"/>
   <path class="fil0" d="M5 125l56 0 -3 3c-2,3 -4,6 -5,9 -2,4 -3,7 -3,10l0 3 -38 0 -1 -3c0,-3 -1,-6 -2,-10 -2,-3 -4,-6 -6,-9l-3 -3 5 0zm47 4l-43 0c2,2 3,4 4,7 1,3 2,6 3,9l30 0c0,-3 1,-6 3,-9 1,-3 2,-5 3,-7z"/>
   <path class="fil0" d="M50 193c0,3 -2,6 -6,8 -4,2 -8,3 -13,3 -5,0 -10,-1 -13,-3 -4,-2 -7,-5 -7,-8l0 -2 39 0 0 2zm-8 4c1,-1 2,-1 3,-2l-28 0c0,1 1,1 2,2 3,1 7,2 12,2 4,0 8,-1 11,-2z"/>
   <path class="fil0" d="M40 201c0,3 -1,6 -2,8 -2,2 -5,3 -7,3 -3,0 -6,-1 -7,-3 -2,-2 -3,-5 -3,-8l0 -3 3 0 0 1c1,0 2,0 3,0 1,0 2,0 4,0 1,0 2,0 3,0 1,0 2,0 3,0l1 -1 2 0 0 3zm-6 5c1,-1 1,-2 1,-3l0 0c-2,1 -3,1 -4,1 -2,0 -3,0 -4,-1 -1,0 -1,0 -1,0 0,1 1,2 1,3 1,1 2,2 4,2 1,0 2,-1 3,-2z"/>
   <path class="fil0" d="M19 126c2,3 4,6 5,10l0 0c1,3 2,7 2,11l-5 0c0,-3 0,-7 -1,-10l0 0c-1,-3 -3,-6 -5,-9l4 -2z"/>
   <path class="fil0" d="M46 128c-2,3 -4,6 -5,9l0 0c-1,3 -1,7 -1,10l-5 0c0,-4 1,-8 2,-11l0 0c1,-4 3,-7 5,-10l4 2z"/>
   <path class="fil0" d="M123 179c9,2 14,6 18,12 3,5 4,13 3,21 0,9 4,15 10,17 2,1 5,2 8,2 2,-1 5,-1 7,-3l0 0c5,-2 9,-8 8,-18l5 0c1,11 -4,19 -11,22l0 0c-3,2 -6,3 -9,3 -4,0 -7,-1 -10,-2 -7,-3 -13,-10 -13,-21l0 0 0 0c1,-8 1,-14 -2,-19 -3,-5 -8,-8 -15,-10l1 -4z"/>
   <path class="fil0" d="M153 229c1,0 2,0 2,0 4,0 6,0 8,-1 2,-1 3,-3 4,-6 0,0 0,0 0,-1 0,-3 -1,-6 -4,-7 0,0 -1,-1 -2,-1 -2,0 -3,0 -4,0 -1,1 -3,2 -3,4 -1,2 0,3 0,4 0,1 1,1 2,1 0,1 1,1 2,1 1,0 2,-1 2,-1l3 3c-1,1 -3,2 -5,2 -1,0 -3,0 -4,-1 -2,0 -3,-2 -4,-3 -1,-2 -1,-4 -1,-6 1,-4 4,-7 7,-8 2,0 4,0 5,0 2,0 3,1 5,1 3,2 6,6 5,12 0,0 0,1 0,1 -1,4 -3,7 -6,9 -2,1 -6,2 -10,2 -1,-1 -2,-1 -3,-1l1 -4z"/>
   <path class="fil0" d="M88 183c-7,2 -12,5 -15,10 -3,5 -3,11 -2,19l0 0 0 0c0,11 -6,18 -13,21 -3,1 -6,2 -10,2 -3,0 -6,-1 -9,-3l0 0c-7,-3 -11,-11 -10,-22l4 0c-1,10 3,16 8,18l0 0c2,2 5,2 8,3 2,0 5,-1 7,-2 6,-2 10,-8 10,-17 -1,-8 0,-16 3,-21 4,-6 10,-10 18,-12l1 4z"/>
   <path class="fil0" d="M58 233c-1,0 -2,0 -3,1 -4,0 -8,-1 -10,-2 -3,-2 -5,-5 -6,-9 0,0 0,-1 0,-1 -1,-6 2,-10 5,-12 2,0 3,-1 5,-1 2,0 3,0 5,0 3,1 6,4 7,8 0,2 0,4 -1,6 -1,1 -2,3 -4,3 -1,1 -3,1 -4,1 -2,0 -4,-1 -5,-2l3 -3c0,0 1,1 2,1 1,0 2,0 2,-1 1,0 2,0 2,-1 1,-1 1,-2 1,-4 -1,-2 -2,-3 -4,-4 -1,0 -2,0 -3,0 -1,0 -2,1 -3,1 -3,1 -4,4 -4,7 0,1 0,1 0,1 1,3 2,5 4,6 2,1 5,1 8,1 0,0 1,0 2,0l1 4z"/>
   <path class="fil0" d="M105 14c2,0 4,1 6,3 1,2 2,5 2,7 0,3 -1,5 -2,7 0,0 -1,1 -1,1 0,0 1,1 1,1 1,2 2,5 2,7 0,3 -1,6 -2,7 0,1 -1,1 -1,2 0,0 1,0 1,1 1,2 2,4 2,7 0,3 -1,5 -2,7 0,0 -1,1 -1,1 0,1 1,1 1,1 1,2 2,5 2,7 0,3 -1,6 -2,8 0,0 -1,0 -1,1 0,0 1,0 1,1 1,2 2,4 2,7 0,3 -1,5 -2,7 0,1 -1,1 -1,1 0,1 1,1 1,1 1,2 2,5 2,8 0,2 -1,5 -2,7 -1,2 -4,3 -6,3 -2,0 -4,-1 -6,-3 -1,-2 -2,-5 -2,-7 0,-3 1,-6 2,-8 0,0 1,0 1,-1 0,0 -1,0 -1,-1 -1,-2 -2,-4 -2,-7 0,-3 1,-5 2,-7 0,-1 1,-1 1,-1 0,-1 -1,-1 -1,-1 -1,-2 -2,-5 -2,-8 0,-2 1,-5 2,-7 0,0 1,0 1,-1 0,0 -1,-1 -1,-1 -1,-2 -2,-4 -2,-7 0,-3 1,-5 2,-7 0,-1 1,-1 1,-1 0,-1 -1,-1 -1,-2 -1,-1 -2,-4 -2,-7 0,-2 1,-5 2,-7 0,0 1,-1 1,-1 0,0 -1,-1 -1,-1 -1,-2 -2,-4 -2,-7 0,-2 1,-5 2,-7 2,-2 4,-3 6,-3zm2 6c0,-1 -1,-1 -2,-1 -1,0 -2,0 -2,1 -1,1 -2,3 -2,4 0,2 1,3 2,4 0,1 1,2 2,2 1,0 2,-1 2,-2 1,-1 2,-2 2,-4 0,-1 -1,-3 -2,-4zm0 16c0,-1 -1,-2 -2,-2 -1,0 -2,1 -2,2 -1,1 -2,3 -2,4 0,2 1,4 2,5 0,1 1,1 2,1 1,0 2,0 2,-1 1,-1 2,-3 2,-5 0,-1 -1,-3 -2,-4zm0 16c0,-1 -1,-1 -2,-1 -1,0 -2,0 -2,1 -1,1 -2,3 -2,5 0,2 1,3 2,4 0,1 1,2 2,2 1,0 2,-1 2,-2 1,-1 2,-2 2,-4 0,-2 -1,-4 -2,-5zm0 17c0,-1 -1,-2 -2,-2 -1,0 -2,1 -2,2 -1,1 -2,3 -2,4 0,2 1,4 2,5 0,1 1,2 2,2 1,0 2,-1 2,-2 1,-1 2,-3 2,-5 0,-1 -1,-3 -2,-4zm0 16c0,0 -1,-1 -2,-1 -1,0 -2,1 -2,1 -1,2 -2,3 -2,5 0,2 1,3 2,5 0,1 1,1 2,1 1,0 2,0 2,-1 1,-2 2,-3 2,-5 0,-2 -1,-3 -2,-5zm0 17c0,-1 -1,-1 -2,-1 -1,0 -2,0 -2,1 -1,1 -2,3 -2,5 0,1 1,3 2,4 0,1 1,2 2,2 1,0 2,-1 2,-2 1,-1 2,-3 2,-4 0,-2 -1,-4 -2,-5z"/>
  </g>
 </g>
</svg>
