<?xml version="1.0" encoding="UTF-8"?>
<!DOCTYPE svg PUBLIC "-//W3C//DTD SVG 1.1//EN" "http://www.w3.org/Graphics/SVG/1.1/DTD/svg11.dtd">
<!-- Creator: CorelDRAW X7 -->
<svg xmlns="http://www.w3.org/2000/svg" xml:space="preserve" width="494px" height="420px" version="1.1" style="shape-rendering:geometricPrecision; text-rendering:geometricPrecision; image-rendering:optimizeQuality; fill-rule:evenodd; clip-rule:evenodd"
viewBox="0 0 180 153"
 xmlns:xlink="http://www.w3.org/1999/xlink">
 <defs>
  <style type="text/css">
   <![CDATA[
    .fil0 {fill:black;fill-rule:nonzero}
   ]]>
  </style>
 </defs>
 <g id="Layer_x0020_1">
  <metadata id="CorelCorpID_0Corel-Layer"/>
  <path class="fil0" d="M95 51l61 0 0 14 0 0c0,4 -1,6 -3,7 -2,2 -5,2 -8,3 -1,0 -6,0 -8,0 -2,-1 -4,0 -4,1 -1,1 -1,4 1,8l0 0c1,4 2,7 4,11 3,7 6,14 6,24 1,7 -1,14 -4,21 -3,5 -8,10 -15,13l0 0 -1 0c-7,-3 -12,-8 -15,-13 -3,-7 -4,-14 -4,-21 0,-10 3,-17 6,-24 2,-4 3,-7 4,-11l0 0c2,-4 2,-7 2,-8 -1,-1 -2,-2 -5,-1 -1,0 -6,0 -8,0 -3,-1 -5,-1 -7,-3 -3,-1 -4,-3 -4,-7l0 0 0 -14 2 0zm27 4l-25 0 0 10 0 0c0,2 1,4 2,4 1,1 3,2 5,2l8 0c4,0 7,1 8,3 1,3 1,6 -1,11 -1,4 -3,8 -4,11 -3,7 -6,14 -6,23l0 1c-1,6 0,12 4,18 2,4 6,8 12,11 5,-3 9,-7 12,-11 3,-6 4,-12 3,-18l0 -1c0,-9 -3,-16 -6,-23 -1,-3 -3,-7 -4,-11 -2,-5 -2,-8 -1,-11 1,-2 4,-3 8,-3l8 0c2,0 4,-1 5,-2 2,0 2,-2 2,-4l0 0 0 -10 -30 0z"/>
  <path class="fil0" d="M82 47c-4,0 -7,1 -11,1 -4,0 -8,0 -12,0 -16,0 -30,-2 -41,-6 -11,-4 -18,-9 -18,-16 0,-6 7,-12 18,-16 11,-3 25,-6 41,-6 5,0 9,0 14,1 4,0 8,1 13,1l-1 4c-4,-1 -8,-1 -13,-1 -4,-1 -8,-1 -13,-1 -15,0 -29,2 -40,6 -9,3 -15,8 -15,12 0,5 6,9 15,13 11,3 25,5 40,5 4,0 8,0 12,0 3,0 7,-1 10,-1l1 4z"/>
  <path class="fil0" d="M79 37c-2,0 -5,1 -8,1 -2,0 -5,0 -8,0 -11,0 -21,-1 -29,-3 -8,-3 -13,-6 -13,-10 0,-4 5,-8 13,-10 8,-2 18,-3 29,-3 4,0 7,0 10,0 3,0 6,0 9,1l-1 4c-2,-1 -5,-1 -8,-1 -3,-1 -6,-1 -10,-1 -11,0 -21,2 -28,4 -6,1 -10,4 -10,6 0,2 4,4 10,6 7,2 17,3 28,3 3,0 6,0 8,0 3,0 5,0 8,-1l0 4z"/>
  <path class="fil0" d="M4 26l0 104c8,10 24,16 43,18 19,2 40,-1 56,-9l2 3c-17,9 -39,12 -59,10 -19,-2 -37,-9 -46,-20l0 0 0 -106 4 0z"/>
  <path class="fil0" d="M22 41l0 31c0,1 1,2 2,3 1,0 2,0 3,0l0 0c1,0 2,0 3,0 1,-1 2,-2 2,-3l0 -9 4 0c1,2 2,3 3,4 1,0 2,1 3,1 1,0 1,-1 2,-1 2,-1 3,-3 3,-5l0 0 0 -16 4 0 0 16 -1 0c0,4 -1,7 -4,8 -1,1 -3,1 -4,1 -1,0 -3,0 -4,0 -1,-1 -1,-1 -2,-2l0 3 0 0c-1,3 -2,5 -4,6l-1 0c-1,1 -2,1 -4,1 -1,0 -3,0 -4,-1 -2,-1 -4,-3 -5,-6l0 0 0 -31 4 0z"/>
  <path class="fil0" d="M152 33c1,-9 3,-16 8,-22l0 0c2,-3 5,-5 8,-7l-12 0c-4,5 -7,9 -9,15 -2,5 -2,10 -2,16l1 3 -3 0 -1 -1c-4,-7 -5,-13 -5,-19 0,-5 2,-10 4,-14l-29 0c-1,1 -3,3 -3,5 -1,2 -1,6 -1,9l0 2 -3 0c-2,-3 -4,-5 -4,-8 -1,-2 -1,-5 0,-8l-3 0c-6,8 -9,16 -10,24 -1,7 2,15 8,23l56 0 0 -18 0 0zm11 -19c-4,4 -7,11 -7,19l0 22 -62 0 0 -1c-8,-9 -10,-18 -10,-27 1,-9 5,-17 11,-26l1 -1 10 0 -1 3c-1,3 -1,6 -1,8 0,1 0,1 0,1 1,-1 1,-3 1,-4 1,-3 3,-6 6,-8l0 0 37 0 -2 3c-3,5 -5,10 -5,15 0,3 0,5 1,8 0,-3 0,-6 1,-9 2,-6 6,-11 11,-16l1 -1 25 0 0 4 -2 0c-6,2 -12,5 -15,10l0 0z"/>
 </g>
</svg>
