<?xml version="1.0" encoding="UTF-8"?>
<!DOCTYPE svg PUBLIC "-//W3C//DTD SVG 1.1//EN" "http://www.w3.org/Graphics/SVG/1.1/DTD/svg11.dtd">
<!-- Creator: CorelDRAW X7 -->
<svg xmlns="http://www.w3.org/2000/svg" xml:space="preserve" width="488px" height="446px" version="1.1" style="shape-rendering:geometricPrecision; text-rendering:geometricPrecision; image-rendering:optimizeQuality; fill-rule:evenodd; clip-rule:evenodd"
viewBox="0 0 108 99"
 xmlns:xlink="http://www.w3.org/1999/xlink">
 <defs>
  <style type="text/css">
   <![CDATA[
    .str0 {stroke:black;stroke-width:0.523356}
    .fil1 {fill:none}
    .fil0 {fill:black;fill-rule:nonzero}
   ]]>
  </style>
 </defs>
 <g id="Layer_x0020_1">
  <metadata id="CorelCorpID_0Corel-Layer"/>
  <g id="_621607872">
   <path class="fil0" d="M14 16c0,0 -1,0 -1,0 -1,0 -2,-1 -3,-2 0,0 -1,-1 0,-2 0,-1 0,-1 0,-1l0 0c0,-1 1,-2 2,-3 1,-1 3,-2 5,-2 3,-1 5,0 7,0 3,1 5,2 7,4 0,1 1,2 1,2 0,2 0,3 -1,4 -1,2 -3,3 -5,3 -2,1 -6,2 -10,2 -1,0 -2,0 -4,0 -2,-1 -5,-2 -8,-3 -2,-2 -4,-4 -4,-7 0,0 0,-1 0,-1 1,-4 3,-6 7,-8 4,-1 9,-2 13,-2 7,0 12,2 17,4 6,3 14,6 29,7 12,0 22,-3 31,-7 3,-1 6,-2 9,-3l2 0 0 86 -1 0c-13,6 -26,9 -39,9 -13,0 -26,-3 -38,-8l1 -3c12,6 24,8 37,8 12,0 25,-3 37,-8l0 -81c-2,1 -5,2 -7,3 -10,3 -19,7 -32,6 -16,0 -23,-3 -30,-6 -5,-2 -9,-4 -16,-4 -4,0 -9,0 -12,2 -3,1 -5,3 -5,5 0,1 0,1 0,1 0,2 1,3 3,4 2,2 4,3 7,3 1,0 2,1 3,1 4,-1 7,-1 9,-2 2,-1 3,-2 3,-2 1,-1 1,-2 1,-2 0,0 0,-1 0,-1 -2,-2 -4,-3 -6,-3 -1,-1 -3,-1 -5,-1 -2,1 -3,1 -4,2 -1,0 -1,1 -2,2 0,0 0,0 0,0 0,0 0,1 0,1 1,0 1,0 1,0 1,0 1,0 1,0l0 3z"/>
   <path class="fil0" d="M32 14l0 79 -1 1c-5,3 -10,5 -15,5 -5,0 -10,-2 -15,-5l-1 -1 0 -82 3 0 0 81c4,2 9,4 13,4 4,0 9,-1 13,-4l0 -78 3 0z"/>
   <path class="fil1 str0" d="M32 74c3,0 6,-2 10,-1 1,7 -11,9 4,10 4,0 -3,-4 3,-3 3,0 -4,1 3,2 1,1 7,7 7,0 10,0 -5,2 14,2 -1,0 -3,2 -5,3 -19,4 29,0 23,-2 -12,-3 -6,-3 4,-4 0,0 1,0 2,-2 0,-13 -13,-21 -4,-36 3,-5 9,-17 7,-23"/>
   <path class="fil1 str0" d="M70 82c3,1 5,-4 16,-3 9,0 5,-5 7,-12 0,-1 0,-3 -1,-4"/>
   <path class="fil1 str0" d="M76 78c6,0 17,-2 13,-11 -1,-2 1,-5 -3,-13 -4,-8 13,-16 -7,-17 -3,0 0,4 -12,2 -1,0 -3,6 -5,0 0,-2 -4,3 -10,-1 -4,-2 -11,5 -12,-2 0,0 -5,-1 -6,-3 0,-2 -2,-4 4,-2 7,3 0,3 9,2 7,8 12,-8 13,4 0,3 11,-10 10,-2 0,0 3,4 2,-1 0,-3 8,2 9,-2 6,-1 -1,7 8,2 1,-1 7,10 6,-7 0,0 2,-4 4,2 0,3 7,0 5,-8 -1,0 -6,10 -8,2 -1,-5 -8,11 -11,7 -3,-5 -1,-8 -11,-2 -4,2 0,3 -5,0 -3,-3 -1,3 -9,-1 0,0 -8,2 -13,2 -11,-1 -3,-7 5,-3 1,1 3,-1 10,-1 6,0 0,-7 13,-2 1,0 2,-4 8,-4 11,0 11,-9 19,-6 2,11 -2,6 1,6 1,9 -11,-7 -15,5 0,0 3,12 -8,6 -4,-3 -6,-11 -7,5 -1,9 -7,-7 -7,-7 -2,1 -6,12 -12,2 -4,-5 -9,13 -13,-3 -1,-3 -8,7 -8,-3 0,0 -3,4 -1,4"/>
   <path class="fil1 str0" d="M34 65c0,-7 7,3 13,-1 5,-4 1,5 13,-10 9,-11 -2,-1 12,2 5,1 6,6 13,8 0,1 1,1 2,1"/>
   <path class="fil1 str0" d="M34 65c-1,-1 3,1 4,2 10,-1 7,5 15,-3 12,2 0,-10 8,2 0,1 18,9 21,6l0 1c4,0 0,-2 0,-2 -4,0 -8,-10 -8,-10 -6,0 -15,-12 -10,-10"/>
   <path class="fil1 str0" d="M32 70c21,6 -2,-4 20,0 1,2 16,7 18,4 0,0 17,-1 19,-1l0 0"/>
   <path class="fil1 str0" d="M32 78c2,0 20,-2 19,-1 -3,4 15,-2 15,2 -3,1 2,5 4,0 0,-1 5,-1 6,-1"/>
   <path class="fil1 str0" d="M96 67c2,0 7,2 8,4 0,1 0,1 1,1"/>
   <path class="fil1 str0" d="M95 70c0,1 10,11 11,11l-1 1c-5,0 -1,-5 -7,-1 -1,0 -3,-1 -3,0"/>
   <path class="fil1 str0" d="M64 88c-9,-4 0,5 -13,-1 -1,-1 -3,3 -14,-3 -1,0 -4,0 -5,0 1,0 2,0 0,2"/>
   <path class="fil1 str0" d="M90 17c-4,-14 -8,8 -11,-2 -2,-1 -7,7 -12,1 0,0 -9,-4 -7,5 1,3 -14,-3 -8,1 3,1 -11,-2 -11,2 0,3 8,-3 14,3 3,3 3,-4 11,-6 0,0 -6,-4 4,-3 2,1 2,9 8,-1 2,-3 5,4 9,-4 1,-1 1,1 4,-3 2,-4 4,7 7,2 0,0 1,-10 4,0 4,16 -3,3 2,-2 2,3 -1,14 0,14"/>
   <path class="fil1 str0" d="M98 34c-1,-5 6,2 6,2 3,0 -4,-3 -5,0 0,0 -4,4 -5,5"/>
   <path class="fil1 str0" d="M91 61c-6,-11 12,-8 12,-15 0,-2 5,-8 -2,-5 -2,2 4,5 -3,6 0,0 -10,5 -6,1 2,-2 -1,4 6,-4 6,2 -10,-1 -2,3 3,2 -11,6 8,5 6,0 -3,-3 0,-5 2,-1 -1,-3 -2,-3 0,0 0,9 -7,9 -3,0 -4,7 -4,8z"/>
   <path class="fil1 str0" d="M37 63c2,-2 10,-1 11,-3 2,-5 14,-13 16,-11l4 3c4,-3 1,3 9,5 9,3 6,4 11,8"/>
   <path class="fil1 str0" d="M51 56c4,-9 10,-6 13,-12 0,0 5,4 6,5 2,1 1,7 9,8 0,0 3,3 5,3"/>
  </g>
 </g>
</svg>
