<?xml version="1.0" encoding="UTF-8"?>
<!DOCTYPE svg PUBLIC "-//W3C//DTD SVG 1.1//EN" "http://www.w3.org/Graphics/SVG/1.1/DTD/svg11.dtd">
<!-- Creator: CorelDRAW X7 -->
<svg xmlns="http://www.w3.org/2000/svg" xml:space="preserve" width="972px" height="470px" version="1.1" style="shape-rendering:geometricPrecision; text-rendering:geometricPrecision; image-rendering:optimizeQuality; fill-rule:evenodd; clip-rule:evenodd"
viewBox="0 0 1092 528"
 xmlns:xlink="http://www.w3.org/1999/xlink">
 <defs>
  <style type="text/css">
   <![CDATA[
    .fil1 {fill:none}
    .fil0 {fill:black;fill-rule:nonzero}
   ]]>
  </style>
    <clipPath id="id0">
     <path d="M1085 521l-514 0 0 -514 514 0 0 514z"/>
    </clipPath>
    <clipPath id="id1">
     <path d="M521 521l-514 0 0 -514 514 0 0 514z"/>
    </clipPath>
 </defs>
 <g id="Layer_x0020_1">
  <metadata id="CorelCorpID_0Corel-Layer"/>
  <g id="_627514480">
   <g>
   </g>
   <g style="clip-path:url(#id0)">
    <g id="_627523984">
     <g>
      <path class="fil0" d="M600 1017l-69 -69c74,-74 149,-149 223,-223l72 72c-74,74 -148,149 -223,223l-3 -3zm-56 -69l59 59 210 -210 -59 -59 -210 210z"/>
      <path class="fil0" d="M816 800l-68 -69c74,-74 148,-148 223,-223l72 72c-75,75 -149,149 -223,224l-4 -4zm-55 -69l59 59 210 -210 -59 -59 -210 210z"/>
      <path class="fil0" d="M1033 584l-69 -69c74,-75 149,-149 223,-223l72 72c-74,74 -148,149 -223,223l-3 -3zm-56 -69l59 59 210 -210 -59 -59 -210 210z"/>
      <path class="fil0" d="M1249 367l-68 -69c74,-74 148,-148 223,-223l72 72c-74,75 -149,149 -223,224l-4 -4zm-55 -69l59 59 210 -210 -59 -59 -210 210z"/>
      <path class="fil0" d="M643 843l-69 -69c74,-74 149,-149 223,-223l72 72c-74,74 -149,149 -223,223l-3 -3zm-56 -69l59 59 210 -210 -59 -59 -210 210z"/>
      <path class="fil0" d="M859 626l-69 -68c75,-75 149,-149 223,-224l73 73c-75,74 -149,148 -224,223l-3 -4zm-56 -68l59 58 210 -209 -59 -59 -210 210z"/>
      <path class="fil0" d="M1076 410l-69 -69c74,-74 149,-149 223,-223l72 72c-74,74 -149,149 -223,223l-3 -3zm-56 -69l59 59 210 -210 -59 -59 -210 210z"/>
      <path class="fil0" d="M1292 193l-69 -68c75,-75 149,-149 223,-224l73 73c-75,74 -149,148 -224,223l-3 -4zm-55 -68l58 58 210 -209 -59 -59 -209 210z"/>
      <path class="fil0" d="M469 886l-69 -69c74,-75 149,-149 223,-223l72 72c-74,74 -149,149 -223,223l-3 -3zm-56 -69l59 59 210 -210 -59 -59 -210 210z"/>
      <path class="fil0" d="M685 669l-69 -69c75,-74 149,-148 224,-223l72 72c-75,75 -149,149 -223,223l-4 -3zm-55 -69l59 59 210 -210 -59 -59 -210 210z"/>
      <path class="fil0" d="M902 453l-69 -69c74,-75 149,-149 223,-223l72 72c-74,74 -148,149 -223,223l-3 -3zm-56 -69l59 59 210 -210 -59 -59 -210 210z"/>
      <path class="fil0" d="M1118 236l-69 -69c75,-74 149,-149 224,-223l72 72c-75,75 -149,149 -223,223l-4 -3zm-55 -69l59 59 210 -210 -59 -59 -210 210z"/>
      <path class="fil0" d="M338 755l-69 -69 223 -223 72 72c-74,74 -149,148 -223,223l-3 -3zm-56 -69l59 59 210 -210 -59 -59 -210 210z"/>
      <path class="fil0" d="M554 538l-69 -69c75,-74 149,-149 223,-223l73 72c-75,75 -149,149 -223,223l-4 -3zm-55 -69l59 59 209 -210 -59 -59 -209 210z"/>
      <path class="fil0" d="M771 322l-69 -69c74,-75 149,-149 223,-223l72 72c-74,74 -149,148 -223,223l-3 -3zm-56 -69l59 59 210 -210 -59 -59 -210 210z"/>
      <path class="fil0" d="M987 105l-69 -69c75,-74 149,-149 224,-223l72 72c-75,75 -149,149 -223,223l-4 -3zm-55 -69l59 59 209 -210 -58 -59 -210 210z"/>
      <path class="fil0" d="M207 623l-69 -68c74,-75 148,-149 223,-224l72 73c-74,74 -149,148 -223,223l-3 -4zm-56 -68l59 59 210 -210 -59 -59 -210 210z"/>
      <path class="fil0" d="M423 407l-69 -69 223 -223 73 72 -224 223 -3 -3zm-56 -69l59 59 210 -210 -59 -59 -210 210z"/>
      <path class="fil0" d="M640 190l-69 -68c74,-75 149,-149 223,-224l72 73c-74,74 -149,148 -223,223l-3 -4zm-56 -68l59 58 210 -209 -59 -59 -210 210z"/>
      <path class="fil0" d="M856 -26l-69 -69c75,-74 149,-149 223,-223l73 72c-75,74 -149,149 -224,223l-3 -3zm-55 -69l58 59 210 -210 -59 -59 -209 210z"/>
      <path class="fil0" d="M511 712l-68 -69c74,-74 148,-149 223,-223l72 72c-74,74 -149,149 -223,223l-4 -3zm-55 -69l59 59 210 -210 -59 -59 -210 210z"/>
      <path class="fil0" d="M728 495l-69 -69c75,-74 149,-148 223,-223l72 72c-74,75 -148,149 -223,224l-3 -4zm-56 -69l59 59 210 -210 -59 -58 -210 209z"/>
      <path class="fil0" d="M945 279l-69 -69c74,-74 148,-149 223,-223l72 72c-74,74 -149,149 -223,223l-3 -3zm-56 -69l59 59 210 -210 -59 -59 -210 210z"/>
      <path class="fil0" d="M1161 62l-69 -69c75,-74 149,-148 223,-223l72 72c-74,75 -148,149 -223,224l-3 -4zm-56 -69l59 59 210 -210 -59 -58 -210 209z"/>
      <path class="fil0" d="M380 581l-68 -69 223 -223 72 72 -223 223 -4 -3zm-55 -69l59 59 210 -210 -59 -59 -210 210z"/>
      <path class="fil0" d="M597 364l-69 -69c74,-74 149,-148 223,-223l72 72c-74,75 -148,149 -223,224l-3 -4zm-56 -69l59 59 210 -210 -59 -59 -210 210z"/>
      <path class="fil0" d="M813 148l-68 -69c74,-75 148,-149 223,-223l72 72c-74,74 -149,149 -223,223l-4 -3zm-55 -69l59 59 210 -210 -59 -59 -210 210z"/>
      <path class="fil0" d="M1030 -69l-69 -69c74,-74 149,-148 223,-223l72 72c-74,75 -148,149 -223,223l-3 -3zm-56 -69l59 59 210 -210 -59 -59 -210 210z"/>
      <path class="fil0" d="M249 450l-69 -69 224 -223 72 72c-75,74 -149,149 -223,223l-4 -3zm-55 -69l59 59 209 -210 -58 -59 -210 210z"/>
      <path class="fil0" d="M466 233l-69 -69c74,-74 149,-148 223,-223l72 72c-74,75 -148,149 -223,223l-3 -3zm-56 -69l59 59 210 -210 -59 -59 -210 210z"/>
      <path class="fil0" d="M682 17l-69 -69c75,-75 149,-149 224,-223l72 72c-75,74 -149,149 -223,223l-4 -3zm-55 -69l59 59 210 -210 -59 -59 -210 210z"/>
      <path class="fil0" d="M899 -200l-69 -69c74,-74 149,-149 223,-223l72 72c-74,75 -148,149 -223,223l-3 -3zm-56 -69l59 59 210 -210 -59 -59 -210 210z"/>
     </g>
    </g>
   </g>
   <polygon class="fil1" points="1085,521 571,521 571,7 1085,7 "/>
   <path class="fil0" d="M1085 528l-521 0 0 -528 528 0 0 528 -7 0zm-507 -14l500 0 0 -500 -500 0 0 500z"/>
   <g>
   </g>
   <g style="clip-path:url(#id1)">
    <g>
     <path class="fil0" d="M514 689l-174 0 0 -178 178 0 0 178 -4 0zm-164 -9l159 0 0 -159 -159 0 0 159z"/>
     <path class="fil0" d="M514 521l-174 0 0 -178 178 0 0 178 -4 0zm-164 -10l159 0 0 -159 -159 0 0 159z"/>
     <path class="fil0" d="M514 352l-174 0 0 -178 178 0 0 178 -4 0zm-164 -9l159 0 0 -159 -159 0 0 159z"/>
     <path class="fil0" d="M514 184l-174 0 0 -178 178 0 0 178 -4 0zm-164 -10l159 0 0 -159 -159 0 0 159z"/>
     <path class="fil0" d="M514 15l-174 0 0 -178 178 0 0 178 -4 0zm-164 -9l159 0 0 -159 -159 0 0 159z"/>
     <path class="fil0" d="M345 774l-173 0 0 -178 178 0 0 178 -5 0zm-164 -10l159 0 0 -159 -159 0 0 159z"/>
     <path class="fil0" d="M345 605l-173 0 0 -178 178 0 0 178 -5 0zm-164 -9l159 0 0 -160 -159 0 0 160z"/>
     <path class="fil0" d="M345 436l-173 0 0 -177 178 0 0 177 -5 0zm-164 -9l159 0 0 -159 -159 0 0 159z"/>
     <path class="fil0" d="M345 268l-173 0 0 -178 178 0 0 178 -5 0zm-164 -9l159 0 0 -160 -159 0 0 160z"/>
     <path class="fil0" d="M345 99l-173 0 0 -178 178 0 0 178 -5 0zm-164 -9l159 0 0 -159 -159 0 0 159z"/>
     <path class="fil0" d="M176 689l-173 0 0 -178 178 0 0 178 -5 0zm-163 -9l159 0 0 -159 -159 0 0 159z"/>
     <path class="fil0" d="M176 521l-173 0 0 -178 178 0 0 178 -5 0zm-163 -10l159 0 0 -159 -159 0 0 159z"/>
     <path class="fil0" d="M176 352l-173 0 0 -178 178 0 0 178 -5 0zm-163 -9l159 0 0 -159 -159 0 0 159z"/>
     <path class="fil0" d="M176 184l-173 0 0 -178 178 0 0 178 -5 0zm-163 -10l159 0 0 -159 -159 0 0 159z"/>
     <path class="fil0" d="M176 15l-173 0 0 -178 178 0 0 178 -5 0zm-163 -9l159 0 0 -159 -159 0 0 159z"/>
    </g>
   </g>
   <polygon class="fil1" points="521,521 7,521 7,7 521,7 "/>
   <path class="fil0" d="M521 528l-521 0 0 -528 528 0 0 528 -7 0zm-507 -14l500 0 0 -500 -500 0 0 500z"/>
  </g>
 </g>
</svg>
