<?xml version="1.0" encoding="UTF-8"?>
<!DOCTYPE svg PUBLIC "-//W3C//DTD SVG 1.1//EN" "http://www.w3.org/Graphics/SVG/1.1/DTD/svg11.dtd">
<!-- Creator: CorelDRAW X7 -->
<svg xmlns="http://www.w3.org/2000/svg" xml:space="preserve" width="488px" height="446px" version="1.1" style="shape-rendering:geometricPrecision; text-rendering:geometricPrecision; image-rendering:optimizeQuality; fill-rule:evenodd; clip-rule:evenodd"
viewBox="0 0 108 99"
 xmlns:xlink="http://www.w3.org/1999/xlink">
 <defs>
  <style type="text/css">
   <![CDATA[
    .fil1 {fill:#2B2A29}
    .fil0 {fill:black;fill-rule:nonzero}
   ]]>
  </style>
 </defs>
 <g id="Layer_x0020_1">
  <metadata id="CorelCorpID_0Corel-Layer"/>
  <g id="_711983888">
   <path class="fil0" d="M14 16c0,0 -1,0 -1,0 -1,0 -2,-1 -3,-2 0,0 -1,-1 0,-2 0,-1 0,-1 0,-1l0 0c0,-1 1,-2 2,-3 1,-1 3,-2 5,-2 3,-1 5,0 7,0 3,1 5,2 7,4 0,1 1,2 1,2 0,2 0,3 -1,4 -1,2 -3,3 -5,3 -2,1 -6,2 -10,2 -1,0 -2,0 -4,0 -2,-1 -5,-2 -8,-3 -2,-2 -4,-4 -4,-7 0,0 0,-1 0,-1 1,-4 3,-6 7,-8 4,-1 9,-2 13,-2 7,0 12,2 17,4 6,3 14,6 29,7 12,0 22,-3 31,-7 3,-1 6,-2 9,-3l2 0 0 86 -1 0c-13,6 -26,9 -39,9 -13,0 -26,-3 -38,-8l1 -3c12,6 24,8 37,8 12,0 25,-3 37,-8l0 -81c-2,1 -5,2 -7,3 -10,3 -19,7 -32,6 -16,0 -23,-3 -30,-6 -5,-2 -9,-4 -16,-4 -4,0 -9,0 -12,2 -3,1 -5,3 -5,5 0,1 0,1 0,1 0,2 1,3 3,4 2,2 4,3 7,3 1,0 2,1 3,1 4,-1 7,-1 9,-2 2,-1 3,-2 3,-2 1,-1 1,-2 1,-2 0,0 0,-1 0,-1 -2,-2 -4,-3 -6,-3 -1,-1 -3,-1 -5,-1 -2,1 -3,1 -4,2 -1,0 -1,1 -2,2 0,0 0,0 0,0 0,0 0,1 0,1 1,0 1,0 1,0 1,0 1,0 1,0l0 3z"/>
   <path class="fil0" d="M32 14l0 79 -1 1c-5,3 -10,5 -15,5 -5,0 -10,-2 -15,-5l-1 -1 0 -82 3 0 0 81c4,2 9,4 13,4 4,0 9,-1 13,-4l0 -78 3 0z"/>
   <circle class="fil1" cx="54" cy="14" r="2"/>
   <circle class="fil1" cx="43" cy="30" r="2"/>
   <circle class="fil1" cx="32" cy="46" r="2"/>
   <circle class="fil1" cx="69" cy="26" r="2"/>
   <circle class="fil1" cx="58" cy="42" r="2"/>
   <circle class="fil1" cx="47" cy="57" r="2"/>
   <circle class="fil1" cx="83" cy="38" r="2"/>
   <circle class="fil1" cx="72" cy="54" r="2"/>
   <circle class="fil1" cx="61" cy="69" r="2"/>
   <circle class="fil1" cx="98" cy="49" r="2"/>
   <circle class="fil1" cx="86" cy="65" r="2"/>
   <circle class="fil1" cx="76" cy="81" r="2"/>
   <circle class="fil1" cx="95" cy="22" r="2"/>
   <circle class="fil1" cx="101" cy="77" r="2"/>
   <circle class="fil1" cx="49" cy="85" r="2"/>
   <circle class="fil1" cx="35" cy="73" r="2"/>
  </g>
 </g>
</svg>
