<?xml version="1.0" encoding="UTF-8"?>
<!DOCTYPE svg PUBLIC "-//W3C//DTD SVG 1.1//EN" "http://www.w3.org/Graphics/SVG/1.1/DTD/svg11.dtd">
<!-- Creator: CorelDRAW X7 -->
<svg xmlns="http://www.w3.org/2000/svg" xml:space="preserve" width="499px" height="393px" version="1.1" style="shape-rendering:geometricPrecision; text-rendering:geometricPrecision; image-rendering:optimizeQuality; fill-rule:evenodd; clip-rule:evenodd"
viewBox="0 0 122 96"
 xmlns:xlink="http://www.w3.org/1999/xlink">
 <defs>
  <style type="text/css">
   <![CDATA[
    .fil0 {fill:black;fill-rule:nonzero}
   ]]>
  </style>
 </defs>
 <g id="Layer_x0020_1">
  <metadata id="CorelCorpID_0Corel-Layer"/>
  <g id="_629068144">
   <path class="fil0" d="M1 0l46 0 0 1c-1,14 -4,26 -9,36 -5,11 -13,20 -23,27 3,5 5,9 7,14 1,5 2,11 1,17l0 1 -23 0 0 -96 1 0zm43 3l-41 0 0 90 18 0c0,-5 0,-10 -2,-14 -1,-5 -3,-10 -7,-14l0 -1 1 -1c10,-7 18,-16 23,-27 4,-10 7,-21 8,-33z"/>
   <path class="fil0" d="M121 0l-46 0 0 1c1,14 4,26 9,36 5,11 13,20 23,27 -3,5 -5,9 -7,14 -1,5 -2,11 -1,17l0 1 23 0 0 -96 -1 0zm-43 3l41 0 0 90 -18 0c0,-5 0,-10 2,-14 1,-5 3,-10 7,-14l0 -1 -1 -1c-10,-7 -18,-16 -23,-27 -4,-10 -7,-21 -8,-33z"/>
   <path class="fil0" d="M1 0l32 0 -1 1c0,14 -2,26 -5,36 -4,11 -9,20 -16,27 2,5 4,9 5,14 1,5 1,11 1,17l0 1 -17 0 0 -96 1 0zm29 3l-27 0 0 90 11 0c0,-5 0,-10 -1,-14 -1,-5 -2,-10 -5,-15l0 0 1 -1c7,-7 12,-16 15,-27 4,-10 5,-21 6,-33z"/>
   <path class="fil0" d="M121 0l-32 0 1 1c0,14 2,26 5,36 4,11 9,20 16,27 -2,5 -4,9 -5,14 -1,5 -1,11 -1,17l0 1 17 0 0 -96 -1 0zm-29 3l27 0 0 90 -11 0c0,-5 0,-10 1,-14 1,-5 2,-10 5,-15l0 0 -1 -1c-7,-7 -12,-16 -15,-27 -4,-10 -5,-21 -6,-33z"/>
   <path class="fil0" d="M1 0l17 0 0 1c0,13 -1,26 -3,36 -2,11 -4,20 -8,27 1,4 2,9 2,14 1,6 1,11 1,17l0 1 -10 0 0 -96 1 0zm15 3l-13 0 0 90 5 0c0,-5 -1,-10 -1,-14 -1,-6 -1,-10 -3,-15l0 0 1 -1c3,-7 6,-16 8,-26 2,-10 3,-22 3,-34z"/>
   <path class="fil0" d="M121 0l-17 0 0 1c0,13 1,26 3,36 2,11 4,20 8,27 -1,4 -2,9 -2,14 -1,6 -1,11 -1,17l0 1 10 0 0 -96 -1 0zm-15 3l13 0 0 90 -5 0c0,-5 1,-10 1,-14 1,-6 1,-10 3,-15l0 0 -1 -1c-3,-7 -6,-16 -8,-26 -2,-10 -3,-22 -3,-34z"/>
   <polygon class="fil0" points="22,82 100,82 100,85 22,85 "/>
   <polygon class="fil0" points="45,0 77,0 77,3 45,3 "/>
   <path class="fil0" d="M45 8c11,3 21,3 32,0l1 2c-12,3 -23,3 -34,0l1 -2z"/>
   <path class="fil0" d="M43 17c6,2 12,2 18,2 6,0 12,-1 18,-2l0 2c-6,1 -12,2 -18,2 -6,0 -12,0 -18,-2l0 -2z"/>
   <path class="fil0" d="M41 26c13,4 27,3 40,0l1 2c-14,3 -28,4 -42,0l1 -2z"/>
  </g>
 </g>
</svg>
